<?xml version="1.0" encoding="UTF-8"?>
<svg width="200px" height="120px" viewBox="0 0 200 120" xmlns="http://www.w3.org/2000/svg">
  <g fill="#FF9900">
    <path d="M59.6,40.4 C59.6,42.2 59.8,43.6 60.1,44.6 C60.5,45.6 61,46.6 61.7,47.7 C61.9,48 62,48.3 62,48.6 C62,49 61.8,49.3 61.3,49.7 L58.7,51.4 C58.3,51.7 58,51.8 57.7,51.8 C57.3,51.8 56.9,51.6 56.5,51.2 C55.8,50.4 55.2,49.5 54.7,48.6 C54.2,47.7 53.7,46.6 53.1,45.3 C48.7,50.3 43.1,52.8 36.3,52.8 C31.4,52.8 27.5,51.4 24.5,48.6 C21.6,45.8 20.1,42.1 20.1,37.5 C20.1,32.6 22,28.7 25.7,25.9 C29.4,23.1 34.3,21.7 40.4,21.7 C42.2,21.7 44.1,21.9 46,22.1 C48,22.4 50,22.8 52.1,23.3 L52.1,18.9 C52.1,14.8 51.3,12 49.7,10.4 C48.1,8.8 45.1,8 40.9,8 C39,8 37,8.2 35,8.7 C33,9.2 31,9.7 29.1,10.4 C28.3,10.7 27.7,10.9 27.4,11 C27.1,11.1 26.8,11.2 26.7,11.2 C26,11.2 25.7,10.7 25.7,9.8 L25.7,7.5 C25.7,6.8 25.8,6.3 26.1,6 C26.4,5.7 26.9,5.4 27.7,5.1 C29.6,4.2 31.9,3.4 34.5,2.8 C37.1,2.2 39.9,1.9 42.8,1.9 C49.4,1.9 54.2,3.3 57.2,6.1 C60.1,8.9 61.6,13.1 61.6,18.7 L61.6,40.4 L59.6,40.4 Z M41.1,46.7 C43,46.7 44.9,46.4 46.9,45.7 C48.9,45 50.6,43.8 52,42.1 C52.8,41 53.3,39.8 53.6,38.4 C53.9,37 54,35.3 54,33.3 L54,30 C52.5,29.6 50.9,29.3 49.2,29.1 C47.6,28.9 46,28.8 44.4,28.8 C40.3,28.8 37.3,29.6 35.3,31.1 C33.3,32.6 32.3,34.9 32.3,37.9 C32.3,40.7 33,42.8 34.5,44.2 C35.9,45.9 38.1,46.7 41.1,46.7 Z M85.9,51.8 C84.9,51.8 84.3,51.6 83.9,51.1 C83.5,50.7 83.2,49.9 82.9,48.9 L70.7,6.7 C70.4,5.6 70.3,4.9 70.3,4.5 C70.3,3.7 70.7,3.3 71.5,3.3 L76.4,3.3 C77.5,3.3 78.2,3.5 78.5,4 C78.9,4.4 79.2,5.2 79.5,6.2 L88.2,41.8 L96.4,6.2 C96.6,5.1 96.9,4.4 97.3,4 C97.7,3.6 98.4,3.3 99.5,3.3 L103.8,3.3 C104.9,3.3 105.6,3.5 106,4 C106.4,4.5 106.7,5.2 106.9,6.2 L115.2,42.3 L124.1,6.2 C124.4,5.1 124.7,4.4 125.1,4 C125.5,3.6 126.2,3.3 127.2,3.3 L131.9,3.3 C132.7,3.3 133.1,3.7 133.1,4.5 C133.1,4.8 133.1,5 133,5.4 C132.9,5.7 132.9,6.1 132.7,6.7 L120.3,48.9 C120,49.9 119.7,50.7 119.3,51.1 C118.9,51.5 118.2,51.8 117.3,51.8 L112.6,51.8 C111.5,51.8 110.8,51.6 110.4,51.1 C110,50.6 109.7,49.9 109.5,48.8 L101.4,14.3 L93.3,48.7 C93.1,49.8 92.8,50.5 92.4,51 C92,51.5 91.2,51.7 90.2,51.7 L85.9,51.7 L85.9,51.8 Z M160.9,52.8 C158,52.8 155.1,52.5 152.3,51.9 C149.5,51.3 147.3,50.6 145.8,49.8 C144.9,49.3 144.4,48.7 144.1,48.2 C143.9,47.7 143.7,47.1 143.7,46.5 L143.7,44.1 C143.7,43.2 144.1,42.7 144.8,42.7 C145.2,42.7 145.5,42.8 145.9,42.9 C146.2,43 146.8,43.3 147.4,43.6 C149.3,44.5 151.3,45.2 153.5,45.7 C155.7,46.2 157.9,46.4 160.1,46.4 C163.5,46.4 166.1,45.8 168,44.5 C169.9,43.3 170.8,41.5 170.8,39.2 C170.8,37.7 170.4,36.4 169.5,35.4 C168.6,34.4 166.9,33.4 164.4,32.6 L156.9,30.1 C153.3,28.9 150.6,27.2 149,25 C147.4,22.8 146.6,20.5 146.6,18 C146.6,16 147.1,14.2 148,12.6 C149,11 150.2,9.7 151.8,8.5 C153.4,7.4 155.2,6.5 157.3,5.9 C159.4,5.3 161.6,5 163.8,5 C165.1,5 166.4,5.1 167.7,5.3 C169.1,5.5 170.3,5.8 171.5,6.1 C172.6,6.4 173.7,6.8 174.6,7.2 C175.5,7.6 176.3,8 176.8,8.4 C177.5,8.9 178,9.3 178.3,9.8 C178.6,10.3 178.7,10.8 178.7,11.5 L178.7,13.7 C178.7,14.6 178.3,15.1 177.6,15.1 C177.1,15.1 176.4,14.9 175.4,14.5 C172.5,13.1 169.3,12.4 165.8,12.4 C162.7,12.4 160.3,12.9 158.7,14 C157,15.1 156.2,16.7 156.2,18.9 C156.2,20.4 156.6,21.6 157.6,22.7 C158.5,23.7 160.4,24.7 163.1,25.5 L170.4,28 C174,29.2 176.6,30.7 178.2,32.7 C179.7,34.7 180.5,36.9 180.5,39.4 C180.5,41.5 180,43.4 179.1,45.1 C178.2,46.8 176.9,48.2 175.2,49.4 C173.5,50.6 171.6,51.5 169.3,52.1 C166.9,52.6 164,52.8 160.9,52.8 Z" />
  </g>
</svg> 