<?xml version="1.0" encoding="UTF-8"?>
<svg width="100px" height="100px" viewBox="0 0 100 100" xmlns="http://www.w3.org/2000/svg">
  <path fill-rule="evenodd" clip-rule="evenodd" d="M50 10C27.5 10 9.2 28.3 9.2 50.8C9.2 68.8 21.2 84 38.2 89.5C40.2 89.9 41 88.7 41 87.7C41 86.7 40.9 83.7 40.9 80.5C30 82.7 27 78.1 26 75.9C25.4 74.7 23.2 71 21.2 70.1C19.6 69.3 17.6 67.1 21.1 67C24.5 66.9 26.7 69.6 27.5 70.9C31.5 76.7 37.9 76.1 41.2 75.1C41.6 72.5 42.8 70.7 44.2 69.7C34.9 68.7 25.2 65.1 25.2 49.5C25.2 44.9 27 41.1 27.6 39.3C27.1 38.4 25.5 34.2 28 28.7C28 28.7 31.7 27.7 41 33.7C44.2 32.8 47.6 32.4 51 32.4C54.4 32.4 57.8 32.8 61 33.7C70.3 27.6 74 28.7 74 28.7C76.5 34.2 74.9 38.4 74.5 39.3C76 41.1 77.8 44.8 77.8 49.5C77.8 65.2 68 68.7 58.7 69.7C60.5 71 62 73.5 62 77.3C62 82.7 61.9 86.3 61.9 87.7C61.9 88.7 62.7 89.9 64.7 89.5C81.5 84 93.3 68.7 93.3 50.8C93.3 28.3 75 10 50 10Z" fill="#c9d1d9"/>
</svg> 