<?xml version="1.0" encoding="UTF-8"?>
<svg width="272px" height="92px" viewBox="0 0 272 92" xmlns="http://www.w3.org/2000/svg">
  <path d="M115.75,46.75 C115.75,43.57 115.58,40.52 115.26,37.6 L90,37.6 L90,51.55 L104.42,51.55 C103.76,55.69 101.74,59.13 98.79,61.52 L98.79,69.94 L109.54,69.94 C115.32,64.66 118.75,56.53 118.75,46.75 L115.75,46.75 Z" fill="#4285F4"/>
  <path d="M90,83 C99.05,83 106.55,79.89 111.54,69.94 L100.79,61.52 C97.92,63.38 94.32,64.5 90,64.5 C81.01,64.5 73.42,58.5 70.32,50.32 L59.24,50.32 L59.24,58.98 C64.19,73.02 76.14,83 90,83 Z" fill="#34A853"/>
  <path d="M70.32,50.32 C69.75,48.49 69.43,46.52 69.43,44.5 C69.43,42.48 69.75,40.51 70.32,38.68 L70.32,30.02 L59.24,30.02 C57.22,34.49 56,39.35 56,44.5 C56,49.65 57.22,54.51 59.24,58.98 L70.32,50.32 Z" fill="#FBBC05"/>
  <path d="M90,24.5 C95.1,24.5 99.64,26.18 103.22,29.58 L112.73,20.07 C106.55,14.3 99.05,11 90,11 C76.14,11 64.19,20.98 59.24,35.02 L70.32,43.68 C73.42,35.5 81.01,29.5 90,29.5 L90,24.5 Z" fill="#EA4335"/>
</svg> 