<?xml version="1.0" encoding="UTF-8"?>
<svg width="200px" height="120px" viewBox="0 0 200 120" xmlns="http://www.w3.org/2000/svg">
  <g fill="#1F70C1">
    <path d="M50,46 L150,46 L150,51 L50,51 L50,46 Z" />
    <path d="M50,54 L150,54 L150,59 L50,59 L50,54 Z" />
    <path d="M50,62 L150,62 L150,67 L50,67 L50,62 Z" />
    <path d="M50,70 L150,70 L150,75 L50,75 L50,70 Z" />
    <path d="M67,46 L67,75 L74,75 L74,46 L67,46 Z" />
    <path d="M84,54 L84,75 L91,75 L91,54 L84,54 Z" />
    <path d="M109,54 L109,75 L116,75 L116,54 L109,54 Z" />
    <path d="M126,46 L126,75 L133,75 L133,46 L126,46 Z" />
    <path d="M96,46 L96,51 L103,51 L103,46 L96,46 Z" />
    <path d="M96,54 L96,59 L109,59 L109,54 L96,54 Z" />
    <path d="M96,62 L96,67 L109,67 L109,62 L96,62 Z" />
    <path d="M96,70 L96,75 L103,75 L103,70 L96,70 Z" />
  </g>
</svg> 