<?xml version="1.0" encoding="UTF-8"?>
<svg width="200px" height="120px" viewBox="0 0 200 120" xmlns="http://www.w3.org/2000/svg">
  <g transform="translate(40, 15)">
    <path d="M113.62,15.15 L67.6,52.2 L74.74,28.09 L113.62,15.15 Z" fill="#E2761B" stroke="#E2761B" stroke-linecap="round" stroke-linejoin="round" stroke-width="0.25"/>
    <path d="M6.29,15.15 L51.97,52.55 L45.16,28.09 L6.29,15.15 Z" fill="#E4761B" stroke="#E4761B" stroke-linecap="round" stroke-linejoin="round" stroke-width="0.25"/>
    <path d="M97.75,73.56 L86.02,89 L110.76,94.98 L117.9,74.02 L97.75,73.56 Z" fill="#E4761B" stroke="#E4761B" stroke-linecap="round" stroke-linejoin="round" stroke-width="0.25"/>
    <path d="M2.05,74.02 L9.14,94.98 L33.88,89 L22.15,73.56 L2.05,74.02 Z" fill="#E4761B" stroke="#E4761B" stroke-linecap="round" stroke-linejoin="round" stroke-width="0.25"/>
    <path d="M32.74,47.15 L26.6,56.13 L51.16,57.14 L50.4,30.24 L32.74,47.15 Z" fill="#E4761B" stroke="#E4761B" stroke-linecap="round" stroke-linejoin="round" stroke-width="0.25"/>
    <path d="M87.16,47.15 L69.29,29.9 L68.86,57.14 L93.36,56.13 L87.16,47.15 Z" fill="#E4761B" stroke="#E4761B" stroke-linecap="round" stroke-linejoin="round" stroke-width="0.25"/>
    <path d="M33.88,89 L49.63,82.55 L36.11,74.18 L33.88,89 Z" fill="#E4761B" stroke="#E4761B" stroke-linecap="round" stroke-linejoin="round" stroke-width="0.25"/>
    <path d="M70.27,82.55 L86.02,89 L83.79,74.18 L70.27,82.55 Z" fill="#E4761B" stroke="#E4761B" stroke-linecap="round" stroke-linejoin="round" stroke-width="0.25"/>
    <path d="M86.02,89 L70.27,82.55 L71.45,90.92 L71.28,94.64 L86.02,89 Z" fill="#D7C1B3" stroke="#D7C1B3" stroke-linecap="round" stroke-linejoin="round" stroke-width="0.25"/>
    <path d="M33.88,89 L48.62,94.64 L48.5,90.92 L49.63,82.55 L33.88,89 Z" fill="#D7C1B3" stroke="#D7C1B3" stroke-linecap="round" stroke-linejoin="round" stroke-width="0.25"/>
    <path d="M48.86,68.12 L35.82,65.04 L44.92,61.5 L48.86,68.12 Z" fill="#233447" stroke="#233447" stroke-linecap="round" stroke-linejoin="round" stroke-width="0.25"/>
    <path d="M71.05,68.12 L74.98,61.5 L84.14,65.04 L71.05,68.12 Z" fill="#233447" stroke="#233447" stroke-linecap="round" stroke-linejoin="round" stroke-width="0.25"/>
    <path d="M33.88,89 L36.23,73.56 L22.15,74.02 L33.88,89 Z" fill="#CD6116" stroke="#CD6116" stroke-linecap="round" stroke-linejoin="round" stroke-width="0.25"/>
    <path d="M83.67,73.56 L86.02,89 L97.75,74.02 L83.67,73.56 Z" fill="#CD6116" stroke="#CD6116" stroke-linecap="round" stroke-linejoin="round" stroke-width="0.25"/>
    <path d="M93.36,56.13 L68.86,57.14 L71.05,68.12 L74.98,61.5 L84.14,65.04 L93.36,56.13 Z" fill="#CD6116" stroke="#CD6116" stroke-linecap="round" stroke-linejoin="round" stroke-width="0.25"/>
    <path d="M35.82,65.04 L44.92,61.5 L48.86,68.12 L51.16,57.14 L26.6,56.13 L35.82,65.04 Z" fill="#CD6116" stroke="#CD6116" stroke-linecap="round" stroke-linejoin="round" stroke-width="0.25"/>
    <path d="M26.6,56.13 L36.11,74.18 L35.82,65.04 L26.6,56.13 Z" fill="#E4751F" stroke="#E4751F" stroke-linecap="round" stroke-linejoin="round" stroke-width="0.25"/>
    <path d="M84.14,65.04 L83.79,74.18 L93.36,56.13 L84.14,65.04 Z" fill="#E4751F" stroke="#E4751F" stroke-linecap="round" stroke-linejoin="round" stroke-width="0.25"/>
    <path d="M51.16,57.14 L48.86,68.12 L51.8,81.19 L52.27,63.67 L51.16,57.14 Z" fill="#E4751F" stroke="#E4751F" stroke-linecap="round" stroke-linejoin="round" stroke-width="0.25"/>
    <path d="M68.86,57.14 L67.8,63.6 L67.94,81.19 L71.05,68.12 L68.86,57.14 Z" fill="#E4751F" stroke="#E4751F" stroke-linecap="round" stroke-linejoin="round" stroke-width="0.25"/>
    <path d="M71.05,68.12 L67.94,81.19 L70.27,82.55 L83.79,74.18 L84.14,65.04 L71.05,68.12 Z" fill="#F6851B" stroke="#F6851B" stroke-linecap="round" stroke-linejoin="round" stroke-width="0.25"/>
    <path d="M35.82,65.04 L36.11,74.18 L49.63,82.55 L51.8,81.19 L48.86,68.12 L35.82,65.04 Z" fill="#F6851B" stroke="#F6851B" stroke-linecap="round" stroke-linejoin="round" stroke-width="0.25"/>
    <path d="M71.28,94.64 L71.45,90.92 L70.38,90.01 L49.56,90.01 L48.5,90.92 L48.62,94.64 L33.88,89 L38.41,92.68 L49.39,100.3 L70.47,100.3 L81.5,92.68 L86.02,89 L71.28,94.64 Z" fill="#C0AD9E" stroke="#C0AD9E" stroke-linecap="round" stroke-linejoin="round" stroke-width="0.25"/>
    <path d="M70.27,82.55 L67.94,81.19 L51.8,81.19 L49.63,82.55 L48.5,90.92 L49.56,90.01 L70.38,90.01 L71.45,90.92 L70.27,82.55 Z" fill="#161616" stroke="#161616" stroke-linecap="round" stroke-linejoin="round" stroke-width="0.25"/>
    <path d="M115.57,40.79 L119.53,23.02 L113.62,15.15 L70.27,38.5 L87.16,47.15 L110.19,53.05 L115.09,47.83 L112.81,46.15 L116.09,42.78 L113.25,40.57 L116.54,37.73 L115.57,40.79 Z" fill="#763D16" stroke="#763D16" stroke-linecap="round" stroke-linejoin="round" stroke-width="0.25"/>
    <path d="M0.37,23.02 L4.33,40.79 L3.32,37.73 L6.6,40.57 L3.81,42.78 L7.09,46.15 L4.81,47.83 L9.67,53.05 L32.74,47.15 L49.63,38.5 L6.29,15.15 L0.37,23.02 Z" fill="#763D16" stroke="#763D16" stroke-linecap="round" stroke-linejoin="round" stroke-width="0.25"/>
    <path d="M110.19,53.05 L87.16,47.15 L93.36,56.13 L83.79,74.18 L97.75,74.02 L117.9,74.02 L110.19,53.05 Z" fill="#F6851B" stroke="#F6851B" stroke-linecap="round" stroke-linejoin="round" stroke-width="0.25"/>
    <path d="M32.74,47.15 L9.67,53.05 L2.05,74.02 L22.15,74.02 L36.11,74.18 L26.6,56.13 L32.74,47.15 Z" fill="#F6851B" stroke="#F6851B" stroke-linecap="round" stroke-linejoin="round" stroke-width="0.25"/>
    <path d="M68.86,57.14 L70.27,38.5 L74.78,28.09 L45.16,28.09 L49.63,38.5 L51.16,57.14 L51.75,63.74 L51.8,81.19 L67.94,81.19 L68.04,63.74 L68.86,57.14 Z" fill="#F6851B" stroke="#F6851B" stroke-linecap="round" stroke-linejoin="round" stroke-width="0.25"/>
  </g>
</svg> 