<?xml version="1.0" encoding="UTF-8"?>
<svg width="200px" height="120px" viewBox="0 0 200 120" xmlns="http://www.w3.org/2000/svg">
  <path d="M38,60.1 L38,38.3 L45.1,38.3 L45.1,60.7 C45.1,62.2 44.4,66.9 37.3,66.9 L37.3,61.5 C37.3,61.5 38,60.6 38,60.1 Z M49.5,52.7 L49.5,38.3 L56.6,38.3 L56.6,52.2 C56.6,52.2 56.6,55.4 60,55.4 C63.4,55.4 63.4,52.2 63.4,52.2 L63.4,38.3 L70.5,38.3 L70.5,52.7 C70.5,52.7 71.2,61.5 60,61.5 C48.8,61.5 49.5,52.7 49.5,52.7 Z M90.4,38.3 L96.9,38.3 L104.7,61 L97.5,61 L96.3,57.2 L86.5,57.2 L85.3,61 L81.3,61 L90.4,38.3 Z M94.9,51.9 L91.4,42.6 L87.9,51.9 L94.9,51.9 Z M105.8,61 L105.8,38.3 L117.3,38.3 C120.5,38.3 123.1,41.1 123.1,44.3 C123.1,47.8 120.1,49.6 120.1,49.6 C120.1,49.6 123.9,51.1 123.9,55.3 C123.9,58.7 120.9,61 117.5,61 L105.8,61 Z M114.9,43.7 L113,43.7 L113,47.2 L114.9,47.2 C114.9,47.2 116.3,47.2 116.3,45.4 C116.3,43.7 114.9,43.7 114.9,43.7 Z M115.4,52.5 L113,52.5 L113,55.9 L115.4,55.9 C115.4,55.9 116.8,55.9 116.8,54.2 C116.8,52.5 115.4,52.5 115.4,52.5 Z M150.9,38.3 L157.3,38.3 L165.1,61 L158,61 L156.7,57.2 L147,57.2 L145.7,61 L141.8,61 L150.9,38.3 Z M155.3,51.9 L151.9,42.6 L148.4,51.9 L155.3,51.9 Z" fill="#76B900"/>
</svg> 