<?xml version="1.0" encoding="UTF-8"?>
<svg width="200px" height="120px" viewBox="0 0 200 120" xmlns="http://www.w3.org/2000/svg">
  <path d="M132.651,61.347 C138.183,57.698 140.551,50.622 138.099,44.049 C135.647,37.476 128.922,33.452 122.100,33.842 C120.518,28.159 115.739,24.039 110.043,23.201 C104.347,22.363 98.655,24.981 95.541,29.903 C91.842,27.133 87.114,26.157 82.665,27.246 C78.217,28.335 74.587,31.374 72.783,35.478 C66.356,35.946 61.101,40.793 60,47.148 C58.899,53.502 62.261,59.737 68.108,62.470 C66.448,68.377 68.751,74.782 73.781,78.259 C78.811,81.736 85.430,81.522 90.240,77.744 C93.958,80.474 98.685,81.411 103.116,80.291 C107.547,79.171 111.147,76.120 112.934,72.017 C119.367,71.580 124.642,66.756 125.781,60.401 C125.977,58.942 125.924,57.461 125.625,56.021 C128.267,57.457 130.508,59.206 132.651,61.347 Z" fill="#000000"/>
</svg> 