<?xml version="1.0" encoding="UTF-8"?>
<svg width="200px" height="120px" viewBox="0 0 200 120" xmlns="http://www.w3.org/2000/svg">
  <g fill="#DC382D">
    <path d="M125.212,48.994 L107.747,57.912 L90.281,48.994 L107.747,40.076 L125.212,48.994 Z" />
    <path d="M125.212,66.830 L107.747,75.748 L90.281,66.830 L107.747,57.912 L125.212,66.830 Z" />
    <path d="M86.746,56.453 L69.281,65.371 L51.815,56.453 L69.281,47.535 L86.746,56.453 Z" />
    <path d="M86.746,74.289 L69.281,83.207 L51.815,74.289 L69.281,65.371 L86.746,74.289 Z" />
    <path d="M106.013,83.207 L88.547,92.125 L71.082,83.207 L88.547,74.289 L106.013,83.207 Z" />
    <path d="M106.013,30.700 L88.547,39.618 L71.082,30.700 L88.547,21.782 L106.013,30.700 Z" />
    <path d="M143.931,56.453 L126.466,65.371 L109,56.453 L126.466,47.535 L143.931,56.453 Z" />
    <path d="M143.931,74.289 L126.466,83.207 L109,74.289 L126.466,65.371 L143.931,74.289 Z" />
  </g>
</svg> 