<?xml version="1.0" encoding="UTF-8"?>
<svg width="200px" height="120px" viewBox="0 0 200 120" xmlns="http://www.w3.org/2000/svg">
  <path d="M70.6,45.5 C85.4,31.2 109.3,31.2 124.1,45.5 L126.2,47.6 C127.1,48.4 127.1,49.8 126.2,50.6 L119.7,56.9 C119.3,57.3 118.6,57.3 118.2,56.9 L115.3,54.1 C105.5,44.6 89.3,44.6 79.5,54.1 L76.3,57.2 C75.9,57.6 75.2,57.6 74.8,57.2 L68.3,50.9 C67.4,50.1 67.4,48.7 68.3,47.9 L70.6,45.5 Z M143.2,63.9 L149.1,69.7 C150,70.5 150,71.9 149.1,72.7 L118.4,102.7 C117.5,103.5 116.1,103.5 115.2,102.7 L93.2,81.2 C93,81 92.7,81 92.5,81.2 L70.5,102.7 C69.6,103.5 68.2,103.5 67.3,102.7 L36.6,72.7 C35.7,71.9 35.7,70.5 36.6,69.7 L42.5,63.9 C43.4,63.1 44.8,63.1 45.7,63.9 L67.7,85.4 C67.9,85.6 68.2,85.6 68.4,85.4 L90.4,63.9 C91.3,63.1 92.7,63.1 93.6,63.9 L115.6,85.4 C115.8,85.6 116.1,85.6 116.3,85.4 L138.3,63.9 C139.2,63.1 140.5,63.1 141.4,63.9 L143.2,63.9 Z" fill="#3B99FC"/>
</svg> 