<svg xmlns="http://www.w3.org/2000/svg" width="100" height="100" viewBox="0 0 100 100">
  <defs>
    <linearGradient id="hexGradient" x1="0%" y1="0%" x2="100%" y2="100%">
      <stop offset="0%" stop-color="#00ffff" stop-opacity="0.6" />
      <stop offset="100%" stop-color="#0099ff" stop-opacity="0.2" />
    </linearGradient>
    <linearGradient id="nodeGradient" x1="0%" y1="0%" x2="100%" y2="100%">
      <stop offset="0%" stop-color="#00ffff" />
      <stop offset="100%" stop-color="#0099ff" />
    </linearGradient>
    <linearGradient id="connectionGradient" x1="0%" y1="0%" x2="100%" y2="0%">
      <stop offset="0%" stop-color="#00ffff" stop-opacity="0.6" />
      <stop offset="100%" stop-color="#0099ff" stop-opacity="0.6" />
    </linearGradient>
  </defs>
  
  <!-- Background -->
  <rect width="100" height="100" fill="#000" />
  
  <!-- Hexagon border -->
  <path d="M50 10 L85 30 L85 70 L50 90 L15 70 L15 30 Z" fill="none" stroke="url(#hexGradient)" stroke-width="2" />
  
  <!-- Brain network nodes -->
  <circle cx="35" cy="35" r="3" fill="url(#nodeGradient)" />
  <circle cx="65" cy="35" r="3" fill="url(#nodeGradient)" />
  <circle cx="50" cy="45" r="3" fill="url(#nodeGradient)" />
  <circle cx="30" cy="55" r="3" fill="url(#nodeGradient)" />
  <circle cx="70" cy="55" r="3" fill="url(#nodeGradient)" />
  <circle cx="40" cy="65" r="3" fill="url(#nodeGradient)" />
  <circle cx="60" cy="65" r="3" fill="url(#nodeGradient)" />
  <circle cx="50" cy="70" r="3" fill="url(#nodeGradient)" />
  
  <!-- Network connections -->
  <path d="M35 35 L50 45" stroke="url(#connectionGradient)" stroke-width="1" fill="none" />
  <path d="M65 35 L50 45" stroke="url(#connectionGradient)" stroke-width="1" fill="none" />
  <path d="M30 55 L40 65" stroke="url(#connectionGradient)" stroke-width="1" fill="none" />
  <path d="M70 55 L60 65" stroke="url(#connectionGradient)" stroke-width="1" fill="none" />
  <path d="M40 65 L50 70" stroke="url(#connectionGradient)" stroke-width="1" fill="none" />
  <path d="M60 65 L50 70" stroke="url(#connectionGradient)" stroke-width="1" fill="none" />
  <path d="M50 45 L30 55" stroke="url(#connectionGradient)" stroke-width="1" fill="none" />
  <path d="M50 45 L70 55" stroke="url(#connectionGradient)" stroke-width="1" fill="none" />
  
  <!-- Diamond accents -->
  <path d="M7 50 L10 47 L13 50 L10 53 Z" fill="#00ffff" opacity="0.8" />
  <path d="M87 50 L90 47 L93 50 L90 53 Z" fill="#00ffff" opacity="0.8" />
</svg> 